<?xml version="1.0" encoding="utf-8"?>
<!-- Generator: Adobe Illustrator 26.0.0, SVG Export Plug-In . SVG Version: 6.00 Build 0)  -->
<svg version="1.1" id="Capa_1" xmlns="http://www.w3.org/2000/svg" xmlns:xlink="http://www.w3.org/1999/xlink" x="0px" y="0px"
	 viewBox="0 0 1500 1500" style="enable-background:new 0 0 1500 1500;" xml:space="preserve">
<style type="text/css">
	.st0{fill:#FFFFFF;}
	.st1{fill:#0138E0;}
	.st2{fill:#002BAD;}
</style>
<g>
	<path class="st0" d="M750,1445.38c-52.91-37.71-108.61-95.07-165.61-170.56c-53.94-71.44-107.04-157.08-153.55-247.67
		c-96.75-188.43-154.51-375.34-154.51-499.98c0-63.95,12.52-125.98,37.22-184.37c23.86-56.4,58.01-107.06,101.51-150.56
		c43.5-43.5,94.16-77.66,150.56-101.51C624.02,66.02,686.05,53.5,750,53.5c63.95,0,125.98,12.52,184.37,37.22
		c56.4,23.86,107.06,58.01,150.56,101.51c43.5,43.5,77.66,94.16,101.51,150.56c24.7,58.39,37.22,120.42,37.22,184.37
		c0,124.14-58.29,311.4-155.93,500.92c-46.7,90.65-99.86,176.34-153.74,247.8C857.2,1351.23,802.04,1408.24,750,1445.38z M750,269.5
		c-126.67,0-229.73,103.06-229.73,229.74c0,126.67,103.06,229.73,229.73,229.73s229.73-103.06,229.73-229.73
		C979.73,372.56,876.67,269.5,750,269.5z"/>
	<path class="st1" d="M750,58.5c63.27,0,124.65,12.39,182.42,36.83c55.81,23.6,105.93,57.4,148.98,100.44
		c43.05,43.05,76.84,93.17,100.44,148.98c24.44,57.77,36.83,119.15,36.83,182.42c0,31.64-3.81,67.78-11.33,107.4
		c-7.27,38.3-18.01,79.93-31.92,123.74c-27.01,85.05-65.79,177.55-112.12,267.49c-46.57,90.4-99.58,175.84-153.28,247.08
		c-27.88,36.98-55.87,70.06-83.2,98.32c-26.32,27.22-52.13,50.07-76.81,68.01c-25.13-18.24-51.31-41.34-77.91-68.76
		c-27.57-28.42-55.74-61.61-83.71-98.66c-53.77-71.21-106.71-156.61-153.09-246.94C389.29,935.28,350.83,843,324.06,757.98
		c-27.95-88.76-42.73-168.58-42.73-230.81c0-63.27,12.39-124.65,36.83-182.42c23.6-55.81,57.4-105.93,100.44-148.98
		c43.05-43.05,93.17-76.84,148.98-100.44C625.35,70.89,686.73,58.5,750,58.5 M750,733.97c129.43,0,234.73-105.3,234.73-234.73
		c0-129.44-105.3-234.74-234.73-234.74S515.27,369.8,515.27,499.24C515.27,628.67,620.57,733.97,750,733.97 M750,48.5
		c-264.36,0-478.67,214.31-478.67,478.67S525.27,1294.06,750,1451.5c220.92-154.9,478.67-659.97,478.67-924.33
		S1014.36,48.5,750,48.5L750,48.5z M750,723.97c-124.12,0-224.73-100.62-224.73-224.73c0-124.12,100.61-224.74,224.73-224.74
		s224.73,100.62,224.73,224.74C974.73,623.35,874.12,723.97,750,723.97L750,723.97z"/>
</g>
<g>
	<g>
		<path class="st2" d="M785.67,1356.01c6.43,0.16,9.77,0.27,10.05,0.37c0.5,0.89,1.1,1.75,1.79,2.59c0.7,0.84,1.38,1.74,2.06,2.68
			c0.55,0.84,0.82,1.78,0.81,2.81c0,1.03-0.24,2.14-0.7,3.33c-0.61,1.74-1.15,3.39-1.63,4.96c-0.48,1.57-0.86,3.01-1.13,4.32
			c-0.33,1.46-1.03,2.91-2.08,4.35c-1.05,1.44-2.07,2.83-3.05,4.16c-0.52,1.01-1.16,1.96-1.91,2.85c-0.76,0.9-1.49,1.7-2.19,2.42
			c-0.59,0.6-1.13,1.09-1.6,1.45c-0.48,0.37-0.97,0.65-1.47,0.85c-0.7,0.23-1.39,0.46-2.06,0.67c-0.68,0.21-1.32,0.43-1.92,0.64
			c-1.24,0.47-2.18,0.82-2.83,1.07c-0.87,0.33-2.37,0.25-4.47-0.24c-2.1-0.49-4.95-1.41-8.55-2.77c-2.51-0.95-6.01-2.96-10.47-6.03
			c-4.46-3.07-7.59-4.96-9.4-5.66c-0.39-0.15-0.99-0.33-1.77-0.53c-0.79-0.2-1.41-0.39-1.86-0.57c-1.59-0.62-4.81-2.41-9.64-5.37
			c-4.84-2.96-8.35-4.89-10.55-5.76c-1.07-0.43-2.14-0.47-3.2-0.11c-1.07,0.35-2.08,0.33-3.04-0.05c-1.35-0.54-2.79-1.23-4.31-2.07
			c-1.53-0.83-3.1-1.84-4.72-3.04c-1.31-0.96-2.64-1.9-4.02-2.84c-1.37-0.93-2.7-1.85-3.99-2.75c-1.57-1.01-3.15-2.05-4.75-3.11
			c-1.6-1.06-3.2-2.04-4.79-2.97c-0.99-0.73-2.11-1.69-3.37-2.91c-1.26-1.21-2.67-2.62-4.23-4.21c-0.75-0.79-1.47-1.51-2.16-2.17
			c-0.7-0.66-1.44-1.36-2.23-2.11c-0.57-0.66-0.89-1.4-0.98-2.23c-0.08-0.83,0.05-1.75,0.39-2.77c0.35-0.81,0.71-1.5,1.09-2.09
			c0.38-0.58,0.67-0.97,0.88-1.15c1.11-0.97,2.44-1.47,3.99-1.51c1.55-0.03,3.38,0.39,5.5,1.24c0.67,0.27,1.41,0.61,2.21,1.01
			c0.8,0.41,1.64,0.94,2.51,1.61c1.01,0.62,1.86,1.16,2.55,1.63c0.69,0.47,1.25,0.84,1.67,1.11c1.3,0.58,2.47,1.13,3.5,1.65
			c1.03,0.52,1.97,1.03,2.79,1.52c0.43,0.49,0.91,1.11,1.45,1.86c2.34,1.31,4.3,2.4,5.88,3.27c1.58,0.87,2.73,1.45,3.46,1.74
			c2.35,0.93,4.86,2.51,7.55,4.72c2.69,2.22,4.96,3.69,6.81,4.41c0.79,0.31,1.71,0.8,2.77,1.49c1.06,0.68,2.26,1.56,3.6,2.62
			c1.91,1.34,3.39,2.39,4.42,3.14c1.03,0.75,1.65,1.22,1.85,1.41c0.76,0.41,1.66,0.87,2.68,1.4c1.03,0.53,2.2,1.19,3.52,1.97
			c5.22,3.26,9.63,5.87,13.22,7.85c3.58,1.98,6.4,3.36,8.44,4.12c1.87,0.7,3.46,1.1,4.75,1.21c1.3,0.1,2.22-0.12,2.77-0.68
			c2.49-2.5,4.6-5.18,6.34-8.04c1.74-2.86,3.22-5.97,4.44-9.32c0.26-0.34,0.45-0.69,0.57-1.05c0.12-0.36,0.26-0.73,0.4-1.11
			c-0.32-0.77-0.69-1.39-1.13-1.87c0.06-0.68,0.05-1.31-0.04-1.88C786.06,1356.99,785.9,1356.48,785.67,1356.01z"/>
		<path class="st2" d="M785.61,1356.07c-0.71-0.91-1.29-1.96-1.75-3.15c-0.46-1.19-0.76-2.6-0.91-4.23
			c-0.99-0.52-1.98-1.04-2.95-1.56c-0.97-0.51-1.99-0.99-3.06-1.44c-0.66-0.4-1.39-0.93-2.19-1.57c-0.8-0.65-1.66-1.35-2.56-2.12
			c-0.87-0.81-1.91-1.85-3.13-3.14c-1.22-1.29-2.47-2.84-3.75-4.66c-0.44-1.3-0.97-2.68-1.58-4.14c-0.61-1.46-1.23-2.93-1.86-4.41
			c-0.06-0.62-0.05-1.26,0.02-1.93c0.07-0.67,0.09-1.36,0.06-2.08c0.26-0.55,0.59-1.15,1.02-1.8c0.43-0.65,1-1.33,1.71-2.03
			c0.99-0.98,1.92-1.73,2.8-2.24c0.89-0.51,1.85-0.84,2.9-1c0.71-0.12,1.63-0.14,2.76-0.08c1.13,0.06,2.44,0.2,3.92,0.42
			c1.21,0.28,2.55,0.57,4.02,0.88c-0.33-0.12-0.26,0,0.2,0.36c0.46,0.36,1.22,0.91,2.26,1.66c0.7,0.49,1.4,0.99,2.1,1.48
			c2.08,1.5,3.9,3.85,5.47,7.05c1.57,3.2,2.98,7.27,4.26,12.21c0.12,0.42,0.37,0.84,0.76,1.24c0.39,0.41,0.92,0.73,1.58,0.97
			c1.16,0.41,2.33,0.62,3.51,0.63c1.18,0.01,2.25-0.19,3.23-0.6c0.64-0.21,1.46-0.61,2.46-1.2c1-0.59,2.1-1.33,3.29-2.22
			c1.32-1.65,2.31-3.22,2.98-4.72c0.67-1.5,1.09-2.89,1.26-4.18c0.02-0.26,0.09-0.67,0.21-1.22c0.12-0.55,0.13-1.14,0.06-1.76
			c2.08,0.02,3.94,0.04,5.57,0.06c1.64,0.02,3.03,0.07,4.19,0.14c0.93,3.39,1.31,6.32,1.14,8.77c-0.18,2.45-1,4.48-2.47,6.09
			c-0.05,0.85-0.34,1.74-0.86,2.67c-0.52,0.93-1.32,1.97-2.38,3.12c-1.4,1.52-2.95,2.76-4.66,3.71c-1.7,0.95-3.5,1.62-5.4,1.98
			c-0.94,0.21-2.15,0.33-3.62,0.36c-1.47,0.03-3.17-0.01-5.1-0.09c-1.57-0.07-2.81-0.05-3.71,0.07c-0.89,0.11-1.54,0.37-1.92,0.78
			c-0.31,0.32-0.45,0.76-0.41,1.31c0.03,0.55,0.23,1.22,0.61,2.01c-1-0.14-2.3-0.23-3.92-0.27
			C790.13,1356.14,788.08,1356.1,785.61,1356.07z M777.32,1327.13c-0.86,0.88-0.43,2.62,1.3,5.24c1.73,2.63,3.34,4.21,4.84,4.75
			c0.33,0.12,0.62,0.15,0.85,0.1c0.23-0.05,0.51-0.23,0.82-0.55c0.43-0.44,0.46-0.92,0.1-1.42c-0.36-0.51-0.7-0.98-1.02-1.42
			c-0.12-0.64-0.3-1.28-0.52-1.93c-0.23-0.65-0.45-1.28-0.67-1.9c-0.3-0.76-0.72-1.39-1.26-1.91c-0.54-0.52-1.19-0.91-1.96-1.19
			c-0.5-0.18-0.96-0.25-1.4-0.22C777.95,1326.7,777.59,1326.85,777.32,1327.13z"/>
		<path class="st2" d="M814.64,1325.55c-0.12-0.42-0.35-0.89-0.7-1.41c-0.34-0.52-0.71-1.12-1.1-1.8c0.01-2.07,0.02-4.15,0.03-6.22
			c-0.39-0.89-0.77-2.18-1.11-3.86c-0.34-1.68-0.73-3.75-1.16-6.22c-0.41-0.41-0.78-0.99-1.13-1.73c-0.35-0.74-0.6-1.57-0.75-2.48
			c-0.17-0.81-0.3-1.61-0.39-2.4c-0.09-0.78-0.2-1.52-0.34-2.22c-0.24-0.89-0.51-1.75-0.8-2.58c-0.3-0.83-0.55-1.66-0.78-2.49
			c-0.15-0.91-0.11-1.78,0.1-2.62c0.21-0.84,0.7-1.66,1.45-2.48c0.83-0.89,1.6-1.52,2.32-1.89c0.72-0.37,1.37-0.48,1.94-0.34
			c0.85,0.83,1.68,1.68,2.5,2.55c0.35-0.04,0.7-0.08,1.05-0.12c0.73-2.11,1.35-3.75,1.86-4.92c0.5-1.17,0.88-1.9,1.14-2.18
			c2.7-2.99,5.89-4.84,9.57-5.55c3.68-0.71,7.87-0.27,12.61,1.31c0.9,0.3,1.88,0.73,2.94,1.3c1.07,0.57,2.15,1.28,3.25,2.12
			c1.22,0.94,2.16,1.83,2.81,2.65c0.64,0.83,1.03,1.53,1.14,2.11c0.83,0.06,1.48,0.03,1.95-0.08c0.47-0.11,0.84-0.34,1.13-0.68
			c0.28-0.33,0.45-0.72,0.48-1.17c0.04-0.44,0.01-1-0.09-1.68c1.51-0.04,3.06-0.06,4.64-0.05c1.58,0.01,3.14-0.01,4.71-0.04
			c0.21,1.03,0.41,2.03,0.61,3.01c0.2,0.97,0.33,1.98,0.4,3.02c0.2,1.3,0.16,2.45-0.11,3.46c-0.27,1.01-0.76,1.94-1.47,2.78
			c-0.82,0.97-1.78,1.68-2.9,2.12c-1.12,0.44-2.37,0.68-3.76,0.71c0.87,1.63,1.4,3.42,1.61,5.4c0.2,1.97,0.02,4.02-0.55,6.15
			c-0.25,1.26-0.57,2.38-0.96,3.36c-0.39,0.98-0.88,1.82-1.5,2.54c-0.18,0.21-0.42,0.66-0.73,1.34c-0.31,0.68-0.62,1.21-0.95,1.59
			c-2.06,2.39-5.24,4.13-9.54,5.18c-4.3,1.05-8.08,1.03-11.29-0.06c-1.31-0.44-2.84-1.25-4.58-2.44c-1.74-1.19-2.8-1.84-3.18-1.97
			c-0.38-0.13-0.78-0.14-1.19-0.04c-0.41,0.1-0.77,0.32-1.07,0.65c-0.19,0.21-0.23,0.84-0.12,1.9c0.11,1.06,0.27,2.57,0.48,4.53
			c0.11,0.2,0.31,0.46,0.59,0.77c0.29,0.32,0.54,0.75,0.75,1.31c-1.56-0.1-3.17-0.17-4.83-0.2
			C817.96,1325.45,816.3,1325.47,814.64,1325.55z M826.75,1290.85c-0.13,0.23-0.12,0.62,0.04,1.18c0.16,0.57,0.45,1.16,0.86,1.78
			c0.71,0.99,1.46,2.11,2.24,3.34c0.24,0.67,0.3,1.33,0.19,1.96c-0.11,0.63-0.38,1.31-0.81,2.02c-0.32,0.43-0.18,1.04,0.41,1.83
			c0.59,0.79,1.62,1.73,3.1,2.82c1.26,1.02,2.4,1.83,3.4,2.44c1,0.61,1.91,1.05,2.72,1.32c1.51,0.51,2.91,0.59,4.17,0.26
			c1.27-0.33,2.43-1.1,3.48-2.32c1.67-1.92,2.51-3.92,2.53-5.98c0.02-2.06-0.72-4.25-2.21-6.57c-0.43-1-0.85-1.95-1.25-2.83
			c-0.03-0.44-0.32-0.88-0.85-1.33c-0.54-0.45-1.25-0.95-2.13-1.51c-1.19-0.88-2.38-1.76-3.56-2.64c-1.92-0.16-3.49-0.23-4.71-0.21
			c-1.22,0.02-2.08,0.16-2.59,0.42c-0.34,0.15-0.92,0.55-1.73,1.19C829.25,1288.66,828.14,1289.6,826.75,1290.85z"/>
		<path class="st2" d="M854.46,1280.62c-0.23-0.29-0.45-0.64-0.67-1.06c-0.21-0.42-0.48-0.92-0.79-1.51
			c-0.06-0.56-0.21-1.3-0.43-2.23c-0.22-0.93-0.5-1.98-0.84-3.17c-0.41-1.1-0.92-2.44-1.54-4.04c-0.62-1.59-1.37-3.53-2.24-5.79
			c-0.32-0.96-0.74-2.17-1.26-3.63c-0.52-1.45-1.16-3.19-1.9-5.2c-0.71-1.73-0.91-3.4-0.6-5.01c0.31-1.6,1.1-3.16,2.37-4.65
			c1.27-1.5,2.77-2.41,4.52-2.74c1.74-0.33,3.71-0.13,5.91,0.59c1.18,0.39,3.13,1.48,5.86,3.28c2.74,1.8,6.24,4.35,10.51,7.64
			c0.72,0.71,1.41,1.38,2.06,2.02c0.46,0.47,0.92,0.83,1.37,1.08c0.45,0.25,0.8,0.41,1.06,0.5c0.31,0.1,0.81,0.07,1.52-0.08
			c0.01-0.26-0.03-0.53-0.14-0.8c-0.1-0.27-0.23-0.59-0.39-0.96c-0.5-0.59-0.9-1.36-1.18-2.33c-0.29-0.97-0.55-2.11-0.8-3.41
			c-0.57-0.66-1.02-1.43-1.38-2.32c-0.35-0.88-0.58-1.82-0.68-2.81c-0.07-0.23-0.22-0.56-0.46-0.99c-0.24-0.42-0.46-0.91-0.66-1.45
			c-0.22-0.76-0.38-1.64-0.48-2.63c-0.1-0.99-0.13-2.11-0.07-3.37c0.21-1.37,0.47-2.57,0.79-3.61c0.32-1.04,0.75-1.9,1.29-2.57
			c1.04-1.31,2.34-2.35,3.89-3.13c1.55-0.77,3.41-1.27,5.58-1.48c3.77,0.14,7.27,0.25,10.51,0.31c1.91,0.02,3.46-0.14,4.64-0.49
			c1.19-0.34,2.05-0.88,2.6-1.61c0.42-0.56,0.67-1.1,0.76-1.63c0.09-0.53,0.03-1.06-0.18-1.6c2.93-0.14,5.86-0.29,8.78-0.44
			c0.16,0.95,0.33,1.92,0.51,2.93c0.18,1.01,0.35,1.98,0.51,2.93c0.32,1.31,0.38,2.47,0.17,3.46c-0.21,0.99-0.63,1.92-1.27,2.78
			c-0.73,0.99-1.69,1.86-2.87,2.61c-1.18,0.75-2.51,1.29-4.01,1.62c-0.66,0.22-1.73,0.42-3.21,0.59c-1.48,0.18-3.29,0.36-5.43,0.53
			c-1.09,0.35-2.44,0.71-4.08,1.07c-1.63,0.36-3.55,0.78-5.75,1.25c-0.23,0.17-0.45,0.33-0.68,0.5c-0.33,0.9-0.5,1.85-0.5,2.83
			c-0.01,0.98,0.12,2.07,0.39,3.27c0.54,2.56,0.73,4.35,0.58,5.36c-0.16,1.01-0.02,1.77,0.41,2.28c0.76,0.98,1.56,2.51,2.38,4.57
			c0.82,2.06,1.73,4.61,2.72,7.63c0.24,0.77,0.47,1.53,0.68,2.29c0.21,0.76,0.41,1.51,0.6,2.26c0.14,0.73,0.05,1.49-0.27,2.27
			c-0.32,0.78-0.82,1.6-1.49,2.45c-1.35,1.71-2.81,2.42-4.38,2.11c-1.56-0.3-3.13-0.62-4.7-0.96c-1.69-1.33-3.86-2.93-6.49-4.78
			c-2.64-1.86-5.71-4.01-9.22-6.47c-0.26-0.08-0.55-0.27-0.87-0.56c-0.32-0.29-0.76-0.65-1.32-1.1c-0.5-0.43-0.97-0.76-1.39-1.01
			c-0.42-0.24-0.82-0.43-1.18-0.54c-0.36-0.12-0.74-0.11-1.12,0.04c-0.38,0.14-0.76,0.44-1.15,0.91c-0.35,0.42-0.5,1.08-0.46,1.97
			c0.05,0.9,0.34,2.05,0.89,3.46c0.58,1.69,1.02,3.03,1.31,4.04c0.29,1.01,0.42,1.66,0.36,1.96c0.02,0.54,0.13,1.21,0.34,2
			c0.21,0.79,0.43,1.68,0.68,2.67c0.14,0.15,0.35,0.38,0.63,0.69c0.28,0.31,0.53,0.73,0.74,1.28c-0.93-0.09-2.15-0.11-3.66-0.07
			C858.68,1280.45,856.77,1280.52,854.46,1280.62z"/>
		<path class="st2" d="M901.22,1216.73c-0.03-2.41-0.06-4.83-0.09-7.24c-0.09-0.29-0.23-0.65-0.42-1.08
			c-0.2-0.43-0.54-0.96-1.04-1.59c-0.42-0.5-0.66-1.07-0.74-1.7c-0.08-0.63-0.05-1.32,0.09-2.07c-0.23-0.5-0.48-1.18-0.74-2.05
			c-0.26-0.87-0.51-1.95-0.75-3.24c0.06-0.56,0.08-1.29,0.06-2.2c-0.02-0.9-0.18-1.93-0.46-3.07c-1.29-5.21-1.87-9.59-1.78-13.17
			c0.1-3.57,0.88-6.36,2.35-8.36c0.81-1.11,1.67-1.84,2.58-2.21c0.91-0.37,1.84-0.4,2.79-0.09c1,0.32,1.76,0.76,2.29,1.32
			c0.53,0.56,0.81,1.27,0.84,2.12c0.08,1.34,0.21,2.8,0.36,4.37c0.51,1,0.97,2.17,1.39,3.51c0.42,1.34,0.7,2.85,0.85,4.52
			c0.32,0.63,0.61,1.16,0.87,1.61c0.09,0.29,0.23,0.84,0.42,1.63c0.19,0.8,0.35,1.82,0.45,3.06c0.76,0.76,1.46,2.13,2.13,4.1
			c0.66,1.97,1.32,4.53,1.98,7.68c0.13,0.41,0.52,1.19,1.19,2.34c0.67,1.15,1.56,2.67,2.68,4.54c0.33-0.08,0.66-0.17,0.99-0.25
			c0.34-1.05,0.46-2.23,0.36-3.52c-0.09-1.29-0.38-2.77-0.85-4.44c-0.47-1.93-0.84-3.51-1.13-4.73c-0.29-1.22-0.44-2.07-0.45-2.54
			c0.02-0.36,0.04-0.72,0.06-1.08c0.02-0.36,0.02-0.78,0.01-1.26c-1.25-2.8-1.9-5.26-1.95-7.38c-0.05-2.11,0.45-3.9,1.48-5.36
			c0.64-0.9,1.52-1.47,2.64-1.69c1.12-0.23,2.5-0.14,4.14,0.26c2.33,0.83,4.6,1.58,6.8,2.25c1.5,0.51,3.14,0.56,4.91,0.13
			c1.77-0.43,3.09-1.29,3.97-2.59c0.26-0.39,0.4-0.8,0.41-1.25c0.01-0.44-0.04-0.91-0.16-1.42c-0.22-0.43-0.43-0.85-0.62-1.25
			c-0.19-0.4-0.37-0.81-0.55-1.23c0.02-0.2,0.03-0.5,0-0.9c-0.02-0.4-0.09-0.8-0.22-1.2c1.83-0.17,3.42-0.3,4.76-0.39
			c1.34-0.09,2.49-0.12,3.44-0.09c0.34,1.3,0.71,2.6,1.14,3.9c0.42,1.3,0.75,2.64,0.99,4.01c0.24,1.63,0.22,3.14-0.03,4.52
			c-0.26,1.38-0.79,2.68-1.61,3.9c-1.89,2.83-4.26,4.73-7.08,5.71c-2.83,0.98-6.16,1.05-9.98,0.2c-0.44-0.13-0.92-0.22-1.46-0.25
			c-0.54-0.03-1.17,0.05-1.89,0.25c0.09,0.29,0.18,0.6,0.26,0.95c0.09,0.34,0.23,0.75,0.42,1.23c0.09,0.71,0.21,1.6,0.35,2.66
			c0.14,1.07,0.33,2.32,0.56,3.75c0.7,2.05,1.25,3.76,1.65,5.15c0.4,1.38,0.7,2.36,0.88,2.94c0.23,1.12,0.36,2.38,0.39,3.78
			c0.03,1.4-0.01,2.95-0.13,4.65c-0.1,1.07-0.21,1.99-0.35,2.73c-0.14,0.75-0.31,1.27-0.53,1.58c-1.48,2.08-3.16,3.44-5.05,4.08
			c-1.89,0.64-4.07,0.59-6.52-0.16c-1.35-0.41-2.46-1.06-3.32-1.92c-0.86-0.87-1.5-1.98-1.92-3.32c-0.58-0.29-1.07-0.49-1.47-0.61
			c-0.25-0.08-0.55-0.1-0.9-0.08c-0.35,0.02-0.77,0.07-1.24,0.13c-0.89,0.04-1.88,0.09-2.99,0.14c-1.11,0.05-2.31,0.11-3.59,0.19
			c-0.07-0.24-0.27-0.6-0.61-1.1C902.17,1218.02,901.74,1217.42,901.22,1216.73z"/>
		<path class="st2" d="M938.26,1170.13c-0.53-1-1.1-2.01-1.73-3.03c-0.71-4.02-1.69-7.44-2.93-10.25c-1.25-2.81-2.68-5.01-4.3-6.62
			c-1.26-0.13-2.53-0.27-3.79-0.4c-0.78-0.92-1.21-2.74-1.27-5.45c-0.07-2.71,0.37-4.75,1.3-6.12c0.99-1.46,2.28-2.55,3.87-3.27
			c1.59-0.72,3.21-1.4,4.84-2.03c0.63-0.37,1.11-0.64,1.44-0.8c2.51-1.29,5.24-2,8.22-2.11c2.97-0.11,6.19,0.36,9.67,1.43
			c1.83,0.56,4.02,2.03,6.59,4.41c2.58,2.38,4.75,3.84,6.51,4.36c0.23,0.07,0.46,0.05,0.69-0.06c0.23-0.11,0.43-0.3,0.59-0.56
			c0.35-0.56,0.51-1.32,0.46-2.26c-0.05-0.94-0.25-2.01-0.6-3.2c-0.96-3.02-1.42-4.81-1.37-5.36c0.04-0.55-0.02-1.27-0.18-2.14
			c1.12-0.07,2.36-0.19,3.7-0.35c1.34-0.16,2.73-0.29,4.18-0.37c0.13,0.5,0.29,1.08,0.49,1.73c0.2,0.65,0.41,1.42,0.62,2.31
			c0.25,1.82,0.46,4.17,0.65,7.03c0.19,2.86,0.34,6.27,0.44,10.22c0.07,1.05-0.06,2.2-0.38,3.45c-1.13,1.84-2.27,3.13-3.43,3.87
			c-1.16,0.75-2.39,0.92-3.7,0.54c-0.52-0.15-1.05-0.43-1.61-0.82c-0.55-0.4-1.12-0.89-1.7-1.47c-0.44-0.44-0.88-0.91-1.32-1.4
			c-0.44-0.49-0.91-0.94-1.43-1.36c-2.33-1.83-4.58-3.38-6.77-4.64c-2.18-1.25-4.27-2.19-6.25-2.79c-2.45-0.75-4.55-0.97-6.31-0.65
			c-1.76,0.31-3.2,1.16-4.32,2.52c-0.07,1.12,0.03,2.4,0.31,3.84c0.28,1.44,0.8,2.98,1.57,4.62c0.85,1.77,1.49,3.32,1.91,4.64
			c0.42,1.33,0.6,2.37,0.55,3.13c0.45,0.6,0.83,1.48,1.15,2.61c0.32,1.14,0.53,2.58,0.62,4.33c0.13,0.15,0.33,0.36,0.59,0.65
			c0.26,0.29,0.51,0.7,0.72,1.23c-1.32,0.02-2.66,0.08-4.02,0.19C941.17,1169.82,939.74,1169.96,938.26,1170.13z"/>
		<path class="st2" d="M966.21,1126.72c-0.08-0.18-0.16-0.36-0.24-0.54c-0.19-0.13-0.37-0.27-0.56-0.4c-0.52-1.09-0.89-2-1.11-2.73
			c-0.22-0.74-0.39-1.31-0.52-1.71c-0.09-0.29-0.09-0.85,0-1.7c0.09-0.85,0.25-1.98,0.48-3.41c-0.01-0.34-0.01-0.67-0.02-1.01
			c-0.31-0.46-0.7-1.22-1.16-2.29c-0.47-1.07-0.97-2.33-1.51-3.79c-0.14-0.3-0.23-0.71-0.28-1.24c-0.05-0.53-0.17-1.11-0.37-1.74
			c-0.39-1.35-0.81-2.72-1.26-4.1c-0.45-1.38-0.93-2.68-1.44-3.92c-0.16-0.51-0.39-1.54-0.69-3.07c-0.29-1.53-0.74-3.63-1.31-6.28
			c-0.03-0.37-0.02-1.01,0.03-1.92c0.06-0.91,0.19-2.08,0.38-3.51c0.08-0.64-0.09-1.2-0.51-1.66c-0.42-0.47-1.08-0.84-1.99-1.13
			c-0.35-0.52-0.83-1.07-1.44-1.65c-0.6-0.58-1.36-1.19-2.26-1.84c-1.08-0.86-1.97-1.54-2.66-2.05c-0.7-0.51-1.16-0.87-1.38-1.1
			c-1.49-1.35-3.16-3.07-4.98-5.16c-1.82-2.08-3.87-4.53-6.13-7.32c-1.21-1.43-2.52-3.07-3.92-4.92c-0.6-1.07-0.89-2.15-0.86-3.22
			c0.03-1.07,0.36-2.1,0.97-3.08c0.48-0.77,1.13-1.24,1.94-1.41c0.82-0.17,1.79-0.07,2.93,0.31c1.81,0.59,3.46,1.29,4.95,2.08
			c1.49,0.79,2.74,1.77,3.77,2.92c0.22,0.22,0.6,0.48,1.14,0.75c0.54,0.28,1.21,0.6,2.01,0.96c0.57,0.24,1.04,0.58,1.43,1.04
			c0.38,0.46,0.68,0.98,0.89,1.56c0.3,0.1,0.62,0.25,0.97,0.47c0.35,0.22,0.78,0.46,1.28,0.72c0.2,0.42,0.4,0.85,0.61,1.27
			c0.2,0.17,0.49,0.31,0.85,0.43c0.36,0.12,0.74,0.24,1.12,0.36c0.26,0.08,0.67,0.39,1.23,0.93c0.57,0.54,1.35,1.33,2.36,2.37
			c1.05,1.15,1.88,2.07,2.49,2.75c0.61,0.68,1.02,1.08,1.21,1.19c0.11,0.24,0.32,0.58,0.63,1.01c0.31,0.43,0.65,0.94,1.02,1.51
			c0.51,0.08,1.02,0.17,1.54,0.25c4.14,2.94,8.31,5.88,12.52,8.81c1.66,0.51,3.08,0.92,4.29,1.24c1.2,0.32,2.22,0.47,3.04,0.47
			c0.87,0.01,1.98-0.08,3.33-0.25c1.35-0.18,2.86-0.47,4.53-0.89c1.1-0.23,2.01-0.62,2.75-1.16c0.74-0.54,1.31-1.18,1.72-1.93
			c0.46-0.83,0.69-1.74,0.7-2.72c0.01-0.99-0.22-2.06-0.69-3.22c1.41-0.18,2.75-0.35,3.99-0.51c1.25-0.16,2.39-0.26,3.42-0.31
			c0.01,0.26,0.2,0.86,0.57,1.81c0.37,0.95,0.93,2.22,1.69,3.81c0.45,0.95,0.59,1.99,0.4,3.12c-0.19,1.14-0.68,2.45-1.49,3.93
			c-1.79,3.28-4.12,5.69-6.99,7.23c-2.87,1.54-6.27,2.21-10.19,2.01c-0.81-0.04-1.51-0.07-2.12-0.1c-0.61-0.03-1.17-0.05-1.68-0.05
			c-1.01,0.05-2.22,0.3-3.62,0.75c0.27,0.44,0.46,0.78,0.58,1.02c0.05,0.63,0.22,1.36,0.52,2.19c0.3,0.83,0.77,1.73,1.41,2.69
			c0.37,0.26,0.78,0.67,1.22,1.21c0.45,0.54,0.94,1.25,1.47,2.13c0.85,1.89,1.69,3.8,2.54,5.74c0.85,1.94,1.67,3.87,2.47,5.79
			c1.12,2.63,1.74,4.93,1.85,6.91c0.11,1.98-0.19,3.58-0.91,4.8c-1.27,2.19-2.76,3.65-4.46,4.39c-1.7,0.74-3.69,0.77-5.99,0.09
			c-1.05-0.31-2.31-1.12-3.76-2.42c-1.45-1.3-2.63-2.09-3.54-2.36c-0.44,0.02-0.89,0.04-1.33,0.07
			C971.46,1126.24,968.84,1126.48,966.21,1126.72z M966.87,1088.11c-0.22-0.07-0.6-0.08-1.14-0.05c0.27,0.85,0.56,1.89,0.87,3.12
			c0.31,1.23,0.61,2.65,0.89,4.28c0.52,0.52,1.22,1.56,2.1,3.11c0.88,1.55,1.87,3.65,2.98,6.3c0.33,0.77,1.03,1.88,2.09,3.33
			c1.06,1.45,2.37,3.23,3.93,5.34c0.66,0.76,1.51,1.61,2.56,2.53c0.27,0.08,0.67-0.01,1.19-0.26c0.37-1.43,0.12-3.38-0.71-5.87
			c-0.84-2.48-2.21-5.55-4.1-9.19c-2.06-3.8-3.95-6.74-5.72-8.82C970.04,1089.86,968.4,1088.59,966.87,1088.11z"/>
		<path class="st2" d="M997.97,1072.12c-0.14-0.4-0.36-0.83-0.68-1.31c-0.32-0.48-0.66-1.03-1.02-1.64
			c-0.22-2.02-0.44-4.05-0.66-6.07c-0.39-0.83-0.81-2.05-1.26-3.66c-0.44-1.61-0.96-3.59-1.55-5.96c-0.35-0.36-0.69-0.89-1.04-1.58
			c-0.34-0.69-0.62-1.47-0.83-2.35c-0.22-0.78-0.4-1.55-0.56-2.31c-0.15-0.76-0.32-1.47-0.5-2.13c-0.28-0.85-0.57-1.66-0.88-2.44
			c-0.31-0.78-0.59-1.57-0.85-2.36c-0.21-0.88-0.28-1.74-0.21-2.58c0.07-0.84,0.34-1.7,0.81-2.56c0.52-0.95,1.02-1.64,1.52-2.07
			c0.5-0.43,0.97-0.6,1.41-0.51c0.73,0.74,1.44,1.49,2.14,2.27c0.26-0.07,0.51-0.14,0.77-0.21c0.31-2.13,0.59-3.79,0.84-4.98
			c0.24-1.19,0.45-1.93,0.61-2.24c1.68-3.16,3.84-5.25,6.51-6.26c2.66-1.01,5.84-0.93,9.56,0.22c0.7,0.22,1.49,0.56,2.35,1.03
			c0.87,0.47,1.76,1.07,2.68,1.8c1.02,0.82,1.83,1.6,2.41,2.36c0.58,0.76,0.95,1.41,1.11,1.96c0.63-0.01,1.12-0.09,1.46-0.24
			c0.34-0.15,0.59-0.4,0.77-0.74c0.18-0.35,0.25-0.74,0.23-1.17c-0.02-0.43-0.11-0.97-0.27-1.62c1.13-0.16,2.29-0.29,3.48-0.41
			c1.19-0.12,2.37-0.25,3.54-0.4c0.28,0.99,0.55,1.94,0.81,2.87c0.26,0.93,0.48,1.9,0.66,2.9c0.3,1.24,0.41,2.36,0.33,3.36
			c-0.09,1-0.34,1.94-0.78,2.81c-0.5,1-1.15,1.76-1.94,2.28c-0.79,0.52-1.71,0.85-2.76,0.98c0.85,1.51,1.46,3.21,1.85,5.11
			c0.39,1.9,0.49,3.9,0.31,6c-0.04,1.24-0.15,2.36-0.32,3.33c-0.18,0.98-0.45,1.84-0.83,2.58c-0.11,0.22-0.24,0.67-0.4,1.35
			c-0.15,0.68-0.33,1.23-0.53,1.62c-1.28,2.49-3.48,4.44-6.61,5.84c-3.13,1.4-5.98,1.72-8.53,0.96c-1.04-0.31-2.28-0.96-3.73-1.95
			c-1.45-0.99-2.32-1.53-2.62-1.62c-0.3-0.09-0.6-0.07-0.9,0.07c-0.3,0.14-0.54,0.38-0.73,0.73c-0.12,0.22-0.08,0.84,0.12,1.86
			c0.2,1.02,0.49,2.48,0.87,4.37c0.1,0.18,0.28,0.41,0.53,0.69c0.25,0.28,0.49,0.68,0.71,1.2c-1.19,0.05-2.41,0.14-3.66,0.27
			C1000.46,1071.7,999.21,1071.89,997.97,1072.12z M1003.18,1037.16c-0.07,0.23-0.02,0.61,0.16,1.15c0.18,0.54,0.46,1.09,0.84,1.66
			c0.65,0.91,1.33,1.92,2.06,3.06c0.25,0.64,0.38,1.27,0.36,1.89c-0.01,0.63-0.14,1.31-0.38,2.04c-0.19,0.45-0.02,1.03,0.52,1.75
			c0.53,0.72,1.42,1.54,2.65,2.47c1.07,0.88,2.01,1.57,2.84,2.07c0.83,0.5,1.56,0.85,2.2,1.04c1.2,0.36,2.26,0.32,3.17-0.11
			c0.92-0.43,1.7-1.28,2.36-2.55c1.04-2.01,1.44-4.01,1.21-6.02c-0.22-2-1.04-4.07-2.43-6.2c-0.44-0.94-0.87-1.82-1.27-2.65
			c-0.07-0.42-0.34-0.83-0.79-1.22c-0.46-0.39-1.05-0.82-1.78-1.29c-0.99-0.76-1.99-1.51-2.98-2.27c-1.46,0.01-2.64,0.07-3.55,0.19
			c-0.91,0.12-1.54,0.33-1.89,0.63c-0.24,0.18-0.62,0.61-1.16,1.31C1004.8,1034.81,1004.08,1035.82,1003.18,1037.16z"/>
		<path class="st2" d="M1003.63,965.88c-0.85-0.13-1.74-0.24-2.69-0.36c0.35,0.12,0.11-0.04-0.72-0.46
			c-0.83-0.42-2.29-1.1-4.36-2.04c-0.26-0.49-0.51-0.86-0.76-1.12c-0.25-0.26-0.48-0.5-0.69-0.72c-0.62,0.25-1.13,0.42-1.52,0.52
			c-0.39,0.1-0.68,0.11-0.88,0.05c-2.2-1.13-4.28-2.21-6.25-3.22c-0.56-0.24-1.02-0.83-1.39-1.79c-0.37-0.95-0.66-2.2-0.87-3.73
			c-0.22-1.23-0.35-2.41-0.36-3.52c-0.02-1.11,0.04-2.15,0.17-3.12c0.25-1.28,0.31-2.06,0.19-2.35c-0.12-0.29-0.12-0.57,0.02-0.83
			c0.35-0.69,0.92-1.11,1.71-1.27c0.79-0.16,1.8-0.03,3.02,0.38c0.65,0.22,1.45,0.71,2.41,1.46c0.96,0.75,1.71,1.22,2.25,1.4
			c0.23,0.08,1.12,0.34,2.69,0.79c1.56,0.45,3.82,1.09,6.76,1.92c2.1,0.65,4.47,1.05,7.13,1.2c2.66,0.15,5.49,0.15,8.52-0.01
			c3.96-0.25,7.13-0.89,9.5-1.91c2.37-1.02,3.98-2.46,4.83-4.32c0.67-1.47,0.71-3.69,0.12-6.66c-0.59-2.97-1.82-6.65-3.67-11.03
			c-1.44-3.36-2.83-6.39-4.15-9.09c-1.33-2.7-2.63-4.97-3.91-6.79c-1.13-1.67-2-3.48-2.61-5.43c-0.61-1.95-1.01-4.07-1.2-6.37
			c-0.02-0.7-0.03-1.28-0.05-1.73c-0.01-0.45,0.04-0.78,0.14-1c0.35-0.76,1.11-1.18,2.28-1.24c1.18-0.06,2.74,0.24,4.69,0.91
			c1.69,0.87,3.39,1.7,5.09,2.47c2.6,1.33,5.25,2.87,7.94,4.64c2.69,1.76,5.41,3.79,8.16,6.08c1.39,1.15,2.62,2.14,3.68,2.98
			c1.06,0.84,1.99,1.49,2.79,1.94c0.46,0.25,1.02,0.57,1.7,0.96c0.68,0.39,1.47,0.83,2.39,1.33c0.77,0.74,1.52,1.52,2.25,2.35
			c0.58,0.68,1.34,1.33,2.3,1.95c0.95,0.63,2.1,1.27,3.43,1.94c0.27,0.09,0.61,0.22,1.01,0.4c0.4,0.18,0.83,0.36,1.27,0.55
			c3.51,2.24,6.93,4.46,10.24,6.66c0.31,0.2,0.68,0.53,1.1,1c-0.08,0.61-0.01,1.35,0.2,2.22c0.21,0.87,0.61,1.83,1.19,2.89
			c0.46,1.02,0.77,1.85,0.93,2.48c0.16,0.64,0.19,1.08,0.08,1.34c-0.14,0.35-0.36,0.6-0.65,0.75c-0.29,0.16-0.67,0.16-1.14,0.02
			c-0.3-0.14-0.53-0.28-0.69-0.43c-1.09-1.02-2.79-2.14-5.11-3.37c-2.31-1.23-5.22-2.62-8.7-4.16c-0.76-0.29-2.71-1.3-5.83-3.03
			c-3.12-1.73-7.4-4.19-12.79-7.38c-0.88-0.48-1.95-1.09-3.21-1.83c-1.26-0.73-2.69-1.61-4.27-2.63c-0.77-0.6-1.45-1.11-2.02-1.52
			c-0.57-0.41-1.01-0.67-1.31-0.77c-0.38-0.12-0.68-0.14-0.92-0.05c-0.24,0.1-0.42,0.29-0.56,0.59c-0.12,0.26-0.04,0.83,0.24,1.71
			c0.28,0.89,0.77,2.04,1.48,3.46c0.37,0.82,0.78,1.66,1.22,2.52c0.44,0.86,0.85,1.75,1.23,2.67c0.54,1.52,1.07,2.93,1.58,4.23
			c0.7,2.06,1.4,4.12,2.11,6.18c0.04,0.51,0.09,1.13,0.15,1.87c0.07,0.74,0.14,1.61,0.21,2.63c0.79,1.2,1.2,2.82,1.23,4.89
			c0.03,2.06-0.3,3.85-0.99,5.37c-0.82,1.82-2.13,3.39-3.94,4.73c-1.8,1.34-4.14,2.44-7.03,3.31c-1.38,0.35-2.76,0.69-4.13,1.03
			c-1.37,0.33-2.77,0.71-4.2,1.15c-0.03,0.11-0.06,0.23-0.1,0.34c0.13,0.29,1.52,1.2,4.2,2.73c2.67,1.53,6.66,3.66,12,6.38
			c5.46,2.86,9.81,5.06,12.99,6.63c3.19,1.57,5.3,2.5,6.31,2.81c1.34,0.51,2.28,1.1,2.83,1.78c0.55,0.68,0.67,1.52,0.36,2.51
			c-0.17,0.49-0.36,1.2-0.57,2.12c-0.21,0.92-0.44,2.04-0.71,3.34c-0.14,0.21-0.3,0.38-0.48,0.52c-0.18,0.14-0.37,0.18-0.58,0.12
			c-0.7-0.36-1.39-0.71-2.09-1.07c-0.87-0.02-1.75-0.03-2.62-0.05c-1.14-0.64-2.25-1.27-3.3-1.89c-2.36-0.91-4.58-1.76-6.66-2.55
			c-0.42-0.18-1.1-0.57-2.01-1.18c-0.92-0.6-1.64-0.99-2.16-1.15c-0.28-0.09-0.72-0.15-1.33-0.19c-0.6-0.04-1.04-0.1-1.33-0.19
			c-2.21-0.69-5.3-2.09-9.24-4.2c-3.94-2.12-7.01-3.53-9.22-4.24c-0.97-0.16-1.95-0.3-2.95-0.42c-1.32-0.67-2.93-1.59-4.82-2.76
			C1008.35,968.75,1006.14,967.41,1003.63,965.88z"/>
		<path class="st2" d="M1040.93,870.92c0.46-1.07,0.97-1.79,1.55-2.16c0.57-0.37,1.21-0.44,1.9-0.2c0.91,0.61,1.67,1.11,2.29,1.52
			c1.13,0.88,2.05,1.62,2.76,2.23c0.71,0.61,1.21,1.06,1.5,1.36c0.64,0.66,1.13,1.43,1.45,2.3c0.33,0.87,0.53,1.86,0.62,2.97
			c0.17,1.19,0.24,2.16,0.2,2.9c-0.04,0.75-0.13,1.24-0.28,1.49c-0.38,0.71-0.74,1.38-1.08,2.03c-0.34,0.65-0.64,1.29-0.91,1.94
			c-0.5,0.47-1.18,0.75-2.06,0.82c-0.88,0.07-1.95-0.1-3.2-0.52c-1.11-0.37-2.17-1.63-3.17-3.76c-1-2.14-1.29-3.82-0.89-5.07
			c-0.46-0.99-0.97-2.15-1.53-3.48c-0.07-0.52-0.04-1.15,0.09-1.89C1040.29,872.65,1040.55,871.82,1040.93,870.92z M1073.8,912.52
			c-0.08-0.17-0.16-0.34-0.24-0.52c-0.16-0.13-0.33-0.25-0.49-0.38c-0.94-1.62-1.94-4.25-2.99-7.91c-1.05-3.66-2.04-6.28-2.96-7.85
			c-0.43-0.63-0.65-1.26-0.69-1.91c-0.03-0.64,0.07-1.25,0.3-1.81c0.62-1.51,1.47-2.67,2.55-3.49c1.08-0.82,2.34-1.18,3.79-1.1
			c1.28,0.08,2.57,0.18,3.86,0.31c1.29,0.13,2.57,0.3,3.85,0.52c0.87-0.06,2.16-0.05,3.86,0.01c1.7,0.06,2.71,0.02,3.02-0.12
			c0.46-0.09,0.86-0.33,1.21-0.7c0.34-0.37,0.64-0.89,0.89-1.53c0.3-0.77,0.5-1.61,0.57-2.5c0.08-0.9-0.02-1.87-0.28-2.93
			c-0.24-0.8-0.47-1.64-0.7-2.51c-0.23-0.87-0.45-1.73-0.67-2.58c2.06-0.3,4.12-0.6,6.18-0.9c0.34,0.88,0.67,2.02,1,3.4
			c0.33,1.39,0.7,3.04,1.11,4.96c0.45,2.13,0.72,3.9,0.78,5.32c0.07,1.42-0.02,2.46-0.27,3.1c-1.53,3.92-2.92,6.33-4.19,7.24
			c-1.26,0.91-4.02,1.5-8.26,1.75c-0.38,0.07-0.84,0.22-1.4,0.43c-0.56,0.21-1.21,0.44-1.96,0.69c-1.09,0.24-1.93,0.48-2.52,0.73
			c-0.6,0.25-0.95,0.5-1.05,0.76c-0.28,0.69-0.25,1.75,0.1,3.17c0.35,1.43,1.01,3.24,1.97,5.45c-0.59,0.06-1.3,0.14-2.12,0.24
			c-0.83,0.1-1.77,0.18-2.83,0.24c-0.27,0.01-0.52,0.05-0.77,0.12C1074.2,912.28,1073.98,912.39,1073.8,912.52z"/>
		<path class="st2" d="M1088.64,875.58c-0.52-0.94-1.07-1.9-1.66-2.87c-1.01-3.87-2.15-7.14-3.41-9.81c-1.27-2.67-2.6-4.76-4-6.25
			c-0.96-0.08-1.93-0.16-2.89-0.24c-0.69-0.86-1.22-2.61-1.58-5.24c-0.36-2.63-0.27-4.63,0.27-6c0.57-1.46,1.42-2.57,2.54-3.33
			c1.12-0.76,2.26-1.48,3.42-2.15c0.44-0.39,0.77-0.66,1-0.83c1.75-1.35,3.74-2.12,5.99-2.33c2.24-0.21,4.75,0.15,7.51,1.08
			c1.46,0.49,3.29,1.85,5.52,4.09c2.23,2.23,4.06,3.58,5.46,4.04c0.18,0.06,0.36,0.04,0.53-0.08c0.17-0.11,0.3-0.3,0.39-0.56
			c0.21-0.56,0.24-1.29,0.11-2.2c-0.14-0.91-0.41-1.94-0.81-3.08c-1.06-2.9-1.6-4.62-1.63-5.16c-0.02-0.54-0.15-1.23-0.37-2.07
			c0.85-0.1,1.79-0.24,2.8-0.44c1.01-0.19,2.07-0.34,3.18-0.45c0.15,0.48,0.34,1.04,0.56,1.66c0.22,0.63,0.46,1.37,0.73,2.22
			c0.38,1.76,0.8,4.02,1.26,6.78c0.45,2.76,0.94,6.05,1.46,9.86c0.17,1.01,0.2,2.13,0.09,3.34c-0.66,1.8-1.4,3.08-2.2,3.83
			c-0.8,0.75-1.73,0.96-2.78,0.62c-0.41-0.13-0.85-0.38-1.33-0.75c-0.47-0.37-0.96-0.82-1.46-1.37c-0.39-0.41-0.78-0.85-1.17-1.32
			c-0.39-0.46-0.81-0.89-1.25-1.27c-1.99-1.71-3.88-3.13-5.68-4.28c-1.81-1.15-3.5-1.99-5.07-2.51c-1.94-0.65-3.56-0.79-4.86-0.42
			c-1.29,0.37-2.29,1.23-2.98,2.6c0.07,1.09,0.3,2.33,0.67,3.71c0.38,1.38,0.95,2.86,1.71,4.42c0.85,1.68,1.51,3.16,1.98,4.43
			c0.47,1.27,0.73,2.27,0.78,3.01c0.41,0.57,0.8,1.4,1.18,2.49c0.38,1.09,0.7,2.48,0.98,4.16c0.12,0.14,0.29,0.34,0.53,0.6
			c0.23,0.27,0.46,0.66,0.69,1.17c-1,0.06-2,0.18-3.01,0.33C1090.8,875.16,1089.74,875.35,1088.64,875.58z"/>
		<path class="st2" d="M1103.35,829.81c-0.36-2.31-0.73-4.63-1.08-6.94c-0.1-0.28-0.25-0.61-0.44-1.02c-0.19-0.4-0.51-0.9-0.94-1.48
			c-0.35-0.46-0.6-0.99-0.74-1.59c-0.14-0.6-0.21-1.27-0.23-1.99c-0.23-0.46-0.49-1.11-0.79-1.93c-0.3-0.83-0.62-1.85-0.96-3.08
			c-0.04-0.54-0.13-1.25-0.26-2.12c-0.14-0.87-0.39-1.84-0.74-2.93c-1.6-4.95-2.59-9.15-3-12.6c-0.41-3.45-0.24-6.19,0.51-8.19
			c0.41-1.11,0.91-1.86,1.49-2.26c0.58-0.4,1.22-0.47,1.92-0.23c0.73,0.26,1.32,0.65,1.76,1.16c0.44,0.52,0.73,1.19,0.86,2
			c0.24,1.29,0.51,2.69,0.82,4.2c0.49,0.94,0.96,2.05,1.43,3.32c0.46,1.27,0.86,2.71,1.19,4.32c0.3,0.59,0.58,1.09,0.82,1.51
			c0.1,0.28,0.27,0.79,0.51,1.55c0.24,0.76,0.48,1.73,0.73,2.92c0.63,0.7,1.3,1.97,2.03,3.83c0.73,1.86,1.53,4.28,2.42,7.27
			c0.14,0.39,0.52,1.11,1.15,2.19c0.62,1.07,1.45,2.48,2.49,4.22c0.22-0.1,0.44-0.19,0.65-0.29c0.09-1.03,0.01-2.15-0.24-3.39
			c-0.24-1.23-0.64-2.64-1.2-4.22c-0.59-1.83-1.07-3.32-1.43-4.48c-0.37-1.16-0.58-1.96-0.66-2.42c-0.03-0.35-0.07-0.7-0.1-1.04
			c-0.03-0.35-0.09-0.75-0.16-1.21c-1.25-2.64-2.02-4.97-2.34-7.01c-0.32-2.03-0.21-3.77,0.32-5.22c0.33-0.9,0.86-1.48,1.62-1.75
			c0.75-0.27,1.73-0.24,2.92,0.08c1.74,0.7,3.42,1.33,5.05,1.89c1.12,0.43,2.27,0.41,3.46-0.07c1.19-0.48,2.01-1.36,2.46-2.64
			c0.14-0.38,0.18-0.79,0.13-1.21c-0.05-0.42-0.15-0.88-0.3-1.36c-0.21-0.41-0.41-0.8-0.6-1.17c-0.18-0.37-0.37-0.76-0.54-1.16
			c-0.01-0.19-0.05-0.48-0.11-0.86c-0.06-0.38-0.17-0.76-0.31-1.15c1.27-0.23,2.37-0.41,3.31-0.54c0.94-0.13,1.74-0.2,2.42-0.2
			c0.4,1.24,0.83,2.47,1.29,3.71c0.46,1.23,0.87,2.5,1.2,3.81c0.37,1.56,0.56,3.01,0.55,4.34c-0.01,1.33-0.22,2.6-0.63,3.79
			c-0.97,2.77-2.39,4.68-4.25,5.72c-1.86,1.05-4.19,1.24-6.97,0.58c-0.32-0.11-0.67-0.17-1.05-0.18c-0.38-0.01-0.81,0.1-1.29,0.32
			c0.1,0.27,0.21,0.57,0.31,0.9c0.11,0.32,0.26,0.71,0.46,1.16c0.16,0.68,0.36,1.52,0.6,2.54c0.24,1.02,0.54,2.21,0.9,3.57
			c0.76,1.93,1.38,3.55,1.85,4.86c0.47,1.3,0.81,2.23,1.02,2.78c0.32,1.06,0.58,2.26,0.8,3.6c0.22,1.34,0.4,2.82,0.56,4.45
			c0.08,1.03,0.13,1.91,0.14,2.63c0.01,0.72-0.04,1.23-0.15,1.53c-0.73,2.05-1.71,3.43-2.94,4.13c-1.22,0.7-2.74,0.75-4.55,0.16
			c-0.99-0.33-1.85-0.89-2.57-1.67c-0.72-0.79-1.32-1.82-1.8-3.08c-0.44-0.24-0.81-0.41-1.1-0.51c-0.18-0.06-0.39-0.07-0.63-0.03
			c-0.24,0.04-0.52,0.1-0.84,0.19c-0.6,0.09-1.29,0.18-2.04,0.29c-0.75,0.11-1.57,0.23-2.44,0.37c-0.08-0.22-0.27-0.56-0.57-1.02
			C1104.19,830.99,1103.81,830.44,1103.35,829.81z"/>
		<path class="st2" d="M1122.85,783.39c-0.31-0.68-0.69-1.51-1.14-2.48c-0.45-0.97-0.96-2.18-1.55-3.63
			c-0.83-0.77-1.9-1.59-3.22-2.46c-1.32-0.87-2.91-1.78-4.76-2.73c-1.87-1-3.48-1.94-4.82-2.83c-1.34-0.89-2.4-1.64-3.19-2.26
			c-4.16-3.66-7.34-6.5-9.59-8.53c-2.25-2.03-3.57-3.21-3.98-3.56c-2.56-2.54-4.76-5.03-6.58-7.47c-1.82-2.45-3.32-4.79-4.5-7.03
			c-0.19-0.51-0.39-1.05-0.62-1.62c-0.22-0.57-0.45-1.21-0.67-1.93c0.03-1.79,0.04-3.47,0.03-5.03c0.02-0.87,0.1-1.73,0.24-2.58
			c0.13-0.85,0.34-1.66,0.64-2.43c0.45-1.19,1.24-1.94,2.36-2.25c1.12-0.31,2.56-0.13,4.32,0.53c1.1,0.41,2.25,1.06,3.45,1.95
			c1.21,0.89,2.48,1.97,3.83,3.25c1.89,1.87,3.42,3.33,4.58,4.39c1.15,1.06,1.88,1.71,2.17,1.96c0.64,0.43,1.39,1.17,2.23,2.2
			c0.85,1.04,1.85,2.37,3.02,4.01c1.52,2.05,2.69,3.65,3.51,4.79c0.82,1.14,1.31,1.81,1.47,2.01c0.13,0.39,0.27,0.78,0.41,1.2
			c0.14,0.41,0.29,0.84,0.44,1.28c0.39,0.14,0.79,0.28,1.18,0.43c0.33,0.36,0.55,0.68,0.64,0.95c0.87,1.13,1.93,2.61,3.18,4.43
			c1.25,1.82,2.65,4.01,4.19,6.57c0.78,1.43,1.52,2.55,2.21,3.37c0.69,0.82,1.35,1.34,1.98,1.56c1.54,0.54,3.08,1.08,4.62,1.62
			c0.99,0.11,1.97,0.19,2.95,0.24c0.98,0.06,1.94,0.1,2.87,0.14c1.2,0.18,2.2,0.07,2.98-0.32c0.79-0.39,1.31-0.98,1.58-1.74
			c0.59-1.7,0.73-3.24,0.43-4.6c-0.3-1.36-1.05-2.57-2.25-3.61c-0.78,1.01-1.53,1.74-2.25,2.18c-0.72,0.44-1.36,0.56-1.92,0.37
			c-0.27-0.34-0.6-0.65-0.96-0.95c-0.37-0.3-0.75-0.61-1.14-0.94c-0.23-0.13-0.45-0.29-0.65-0.48c-0.21-0.19-0.49-0.38-0.86-0.55
			c-2.23-2.99-3.78-5.56-4.67-7.7c-0.89-2.14-1.11-3.85-0.65-5.13c0.11-0.3,0.32-0.77,0.65-1.42c0.33-0.65,0.55-1.15,0.67-1.49
			c0.09-0.25,0.17-0.68,0.25-1.28c0.08-0.6,0.16-1.02,0.25-1.28c0.26-0.72,0.63-1.16,1.13-1.32c0.5-0.15,1.09-0.11,1.77,0.14
			c1.47,0.53,2.87,1.64,4.22,3.31c1.35,1.68,2.15,2.56,2.39,2.65c0.21,0.07,0.49-0.01,0.85-0.27c0.02-0.28,0.01-0.58-0.03-0.91
			c-0.04-0.32-0.12-0.65-0.24-0.98c0.51-0.01,1.12-0.09,1.83-0.24c0.71-0.15,1.52-0.31,2.42-0.46c0.31-0.13,0.58-0.2,0.8-0.22
			c0.22-0.02,0.42,0,0.59,0.07c0.87,2.31,1.47,4.29,1.8,5.94c0.33,1.64,0.37,2.95,0.12,3.9c-0.1,0.3-0.23,0.66-0.4,1.07
			c-0.16,0.42-0.36,0.92-0.6,1.5c0.39,0.8,0.83,1.76,1.31,2.85c0.49,1.1,1.08,2.34,1.79,3.73c0.1,0.51,0.25,1.16,0.43,1.93
			c0.19,0.78,0.44,1.68,0.77,2.69c0.6,1.59,0.95,3.07,1.01,4.45c0.07,1.38-0.1,2.68-0.52,3.92c-0.19,0.55-0.44,1.07-0.74,1.56
			c-0.31,0.49-0.75,1.01-1.34,1.57c-0.39,0.44-0.87,0.88-1.44,1.33c-0.57,0.45-1.22,0.93-1.95,1.44c-2.47,0.11-4.69,0.04-6.67-0.21
			c-1.98-0.25-3.8-0.66-5.46-1.24c-0.28-0.1-0.53-0.15-0.75-0.15c-0.22,0-0.42,0.04-0.6,0.11c-0.12,0.17-0.24,0.35-0.36,0.52
			c0,0.17,0,0.33,0,0.5c0.1,0.27,0.2,0.55,0.31,0.82c-0.9,0.07-1.83,0.18-2.79,0.33C1124.88,782.99,1123.88,783.17,1122.85,783.39z
			 M1091.69,738.73c-0.17-0.06-0.32-0.08-0.46-0.06c-0.14,0.02-0.29,0.1-0.46,0.23c-0.13,0.24-0.01,0.63,0.35,1.15
			c0.36,0.52,0.94,1.1,1.74,1.73c0.61,0.42,1.26,1.09,1.95,2.03c0.69,0.93,1.49,2.1,2.39,3.49c0.78,1.21,1.71,2.44,2.77,3.7
			c1.06,1.26,2.24,2.55,3.53,3.89c1.48,1.65,2.85,2.96,4.08,3.94c1.24,0.98,2.29,1.62,3.15,1.92c0.17,0.01,0.34,0.03,0.51,0.04
			c-0.01-0.39-0.48-1.2-1.4-2.42c-0.91-1.22-2.27-2.88-4.06-4.97c-1.55-1.91-2.77-3.36-3.68-4.34c-0.91-0.99-1.53-1.61-1.85-1.87
			c-0.79-0.67-1.71-1.47-2.75-2.39c-1.05-0.92-2.2-1.94-3.46-3.09c-0.41-0.64-0.77-1.18-1.06-1.63c-0.17-0.35-0.37-0.65-0.59-0.87
			C1092.15,738.98,1091.93,738.82,1091.69,738.73z"/>
		<path class="st2" d="M1136.26,745.2c-0.54-0.77-1.05-1.69-1.5-2.76c-0.46-1.07-0.86-2.37-1.22-3.88
			c-0.64-0.37-1.27-0.75-1.89-1.11c-0.62-0.37-1.26-0.7-1.93-0.99c-0.43-0.3-0.92-0.71-1.47-1.22c-0.55-0.51-1.14-1.07-1.76-1.69
			c-0.61-0.66-1.36-1.52-2.24-2.58c-0.88-1.07-1.83-2.39-2.83-3.96c-0.45-1.18-0.97-2.43-1.54-3.75c-0.57-1.32-1.15-2.64-1.73-3.97
			c-0.13-0.58-0.23-1.2-0.3-1.85c-0.07-0.65-0.17-1.32-0.3-2c0.05-0.56,0.14-1.18,0.27-1.85c0.13-0.68,0.34-1.4,0.61-2.16
			c0.38-1.06,0.78-1.89,1.18-2.49c0.41-0.6,0.88-1.03,1.44-1.31c0.37-0.2,0.88-0.34,1.51-0.41c0.63-0.08,1.38-0.1,2.23-0.07
			c0.71,0.12,1.5,0.25,2.36,0.37c-0.2-0.07-0.14,0.03,0.17,0.32c0.31,0.29,0.82,0.73,1.51,1.32c0.47,0.39,0.93,0.78,1.4,1.17
			c1.39,1.19,2.77,3.22,4.16,6.08c1.38,2.86,2.82,6.56,4.34,11.09c0.13,0.38,0.34,0.75,0.63,1.09c0.28,0.34,0.63,0.59,1.04,0.74
			c0.71,0.26,1.4,0.33,2.06,0.21c0.66-0.12,1.22-0.43,1.7-0.93c0.32-0.27,0.71-0.73,1.18-1.4c0.46-0.67,0.95-1.48,1.47-2.44
			c0.47-1.69,0.77-3.28,0.9-4.77c0.13-1.48,0.14-2.84,0.04-4.08c-0.03-0.25-0.05-0.64-0.08-1.18c-0.02-0.53-0.11-1.09-0.25-1.67
			c1.17-0.19,2.22-0.36,3.14-0.5c0.92-0.14,1.71-0.23,2.38-0.28c1.06,3.11,1.74,5.83,2.04,8.16c0.3,2.33,0.17,4.32-0.4,5.97
			c0.11,0.8,0.09,1.67-0.05,2.59c-0.14,0.93-0.42,1.98-0.82,3.17c-0.53,1.57-1.2,2.9-1.99,3.97c-0.79,1.08-1.68,1.89-2.68,2.44
			c-0.49,0.3-1.14,0.55-1.96,0.73c-0.82,0.18-1.77,0.34-2.86,0.48c-0.89,0.11-1.57,0.27-2.05,0.48c-0.48,0.21-0.79,0.53-0.94,0.95
			c-0.12,0.34-0.12,0.77-0.01,1.29c0.11,0.52,0.34,1.12,0.68,1.82c-0.58-0.01-1.32,0.06-2.22,0.21
			C1138.77,744.71,1137.63,744.92,1136.26,745.2z M1126.88,718.75c-0.33,0.94,0.18,2.55,1.56,4.83c1.38,2.29,2.53,3.6,3.45,3.93
			c0.2,0.07,0.37,0.07,0.49,0c0.12-0.07,0.24-0.28,0.36-0.62c0.17-0.47,0.1-0.92-0.18-1.36c-0.28-0.44-0.55-0.85-0.8-1.23
			c-0.17-0.59-0.37-1.18-0.6-1.77c-0.23-0.59-0.46-1.16-0.68-1.73c-0.29-0.68-0.63-1.24-1.01-1.67c-0.38-0.43-0.81-0.73-1.27-0.9
			c-0.3-0.11-0.57-0.13-0.81-0.05C1127.16,718.27,1126.98,718.46,1126.88,718.75z"/>
		<path class="st2" d="M1147.39,713.12c-0.2-0.51-0.48-1.04-0.84-1.6c-0.35-0.56-0.71-1.27-1.06-2.11
			c-0.48-1.76-0.97-3.52-1.44-5.29c-0.04-0.21-0.14-0.35-0.3-0.44c-0.16-0.08-0.39-0.18-0.69-0.29c-0.45-0.12-0.82-0.19-1.12-0.2
			c-0.77-0.28-1.99-0.95-3.65-2.01c-1.66-1.05-2.62-1.8-2.88-2.23c-0.36,0.01-0.72,0.02-1.08,0.03c-2.03-1.39-4.18-3.07-6.44-5.06
			c-2.27-1.99-4.69-4.2-7.28-6.64c-0.37-0.62-0.87-1.32-1.5-2.1c-0.63-0.77-1.34-1.65-2.14-2.64c-1.44-1.37-2.86-3.01-4.28-4.92
			c-1.42-1.9-2.82-3.98-4.21-6.22c-1.81-2.99-3.07-5.51-3.77-7.57c-0.7-2.06-0.82-3.7-0.36-4.94c0.93-2.47,1.94-4.02,3.01-4.66
			c1.07-0.63,2.6-0.56,4.6,0.22c0.51,0.2,1.27,0.63,2.26,1.28c0.99,0.66,1.76,1.09,2.31,1.3c0.55,0.21,1.24,0.75,2.06,1.61
			c0.82,0.86,1.66,1.45,2.5,1.77c0.24,0.14,0.46,0.35,0.66,0.62c0.23,0.07,0.47,0.13,0.7,0.2c0.39,0.35,0.85,0.81,1.37,1.4
			c0.52,0.59,1.13,1.34,1.84,2.24c0.7,0.61,1.5,1.36,2.4,2.24c0.9,0.88,1.87,1.88,2.9,3.01c0.23,0.38,0.51,0.86,0.84,1.45
			c0.32,0.59,0.7,1.23,1.11,1.92c0.38,0.29,0.79,0.69,1.24,1.2c0.45,0.51,0.95,1.16,1.52,1.96c0.3,0.4,0.6,0.91,0.91,1.51
			c0.31,0.6,0.71,1.34,1.22,2.2c0.24,0.38,0.55,0.81,0.93,1.3c0.39,0.48,0.82,1.04,1.31,1.66c0.39,0.68,0.86,1.56,1.41,2.63
			c0.55,1.08,1.22,2.32,1.99,3.72c1.35,2,2.61,4.02,3.78,6.04c3.23,1.21,5.96,1.3,8.18,0.27c2.22-1.02,3.9-3.17,5.03-6.44
			c0.07-0.21,0.18-0.89,0.32-2.04c0.14-1.15,0.28-2.75,0.44-4.81c-0.07-0.65-0.21-1.45-0.43-2.4c-0.21-0.94-0.47-2.03-0.79-3.26
			c1.81-0.26,3.62-0.51,5.42-0.77c0.37,1.39,0.76,2.79,1.17,4.19c0.41,1.4,0.8,2.82,1.17,4.25c0.41,1.64,0.61,3.22,0.59,4.75
			c-0.02,1.53-0.25,2.95-0.7,4.26c-0.23,0.68-0.65,1.7-1.24,3.05c-0.6,1.36-1.02,2.4-1.26,3.12c-0.81,2.38-2.24,4.06-4.28,5.05
			c-2.05,0.99-4.7,1.25-7.94,0.77c-0.33-0.02-0.64-0.01-0.93,0.05c-0.29,0.06-0.65,0.23-1.08,0.5c0.25,0.71,0.54,1.55,0.89,2.52
			c0.35,0.97,0.73,2.12,1.14,3.47C1151.08,712.56,1149.24,712.84,1147.39,713.12z M1119.43,668.03c-0.12,0.12-0.24,0.25-0.36,0.37
			c0.87,3.06,1.87,5.49,2.98,7.31c1.12,1.81,2.42,3,3.89,3.56c0.23,0.09,0.56,0.37,1,0.86c0.44,0.48,0.98,1.16,1.63,2.04
			c0.77,1.07,1.63,2.19,2.59,3.38c1.55,1.51,2.83,2.69,3.83,3.55c1,0.86,1.75,1.39,2.25,1.57c0.18-0.08,0.36-0.16,0.53-0.23
			c0.11-0.39-0.03-0.97-0.39-1.74c-0.36-0.76-0.96-1.71-1.78-2.85c-0.47-0.57-0.99-1.32-1.54-2.25c-0.56-0.94-1.23-2.02-2.02-3.24
			c-0.47-0.95-1.93-2.74-4.36-5.37c-2.43-2.63-4.01-4.16-4.78-4.6c-0.63-0.29-1.23-0.66-1.8-1.09
			C1120.54,668.86,1119.99,668.44,1119.43,668.03z"/>
		<path class="st2" d="M1159.94,677.18c-0.2-0.51-0.46-1.04-0.81-1.61c-0.34-0.56-0.68-1.27-1.01-2.12
			c-0.46-1.76-0.91-3.53-1.35-5.29c-0.04-0.21-0.13-0.35-0.29-0.44c-0.16-0.08-0.38-0.18-0.68-0.29c-0.44-0.12-0.81-0.19-1.1-0.2
			c-0.75-0.29-1.94-0.96-3.56-2.02c-1.62-1.06-2.56-1.8-2.81-2.24c-0.36,0.01-0.71,0.02-1.07,0.03c-1.98-1.39-4.08-3.08-6.29-5.08
			c-2.21-1.99-4.58-4.21-7.1-6.65c-0.36-0.63-0.84-1.33-1.46-2.1c-0.61-0.78-1.31-1.65-2.08-2.64c-1.4-1.37-2.79-3.02-4.17-4.92
			c-1.38-1.91-2.74-3.98-4.09-6.23c-1.76-2.99-2.98-5.52-3.65-7.58c-0.68-2.06-0.77-3.7-0.3-4.94c0.96-2.47,1.97-4.02,3.04-4.66
			c1.07-0.63,2.59-0.56,4.56,0.22c0.51,0.2,1.25,0.63,2.23,1.29c0.98,0.66,1.73,1.09,2.27,1.3c0.54,0.21,1.22,0.75,2.02,1.61
			c0.81,0.86,1.62,1.45,2.45,1.78c0.24,0.14,0.45,0.35,0.64,0.62c0.23,0.07,0.46,0.13,0.69,0.2c0.38,0.35,0.83,0.82,1.33,1.41
			c0.51,0.59,1.1,1.34,1.79,2.25c0.68,0.61,1.47,1.36,2.34,2.24c0.88,0.88,1.82,1.89,2.83,3.02c0.22,0.38,0.49,0.86,0.8,1.45
			c0.31,0.59,0.67,1.23,1.07,1.92c0.37,0.29,0.77,0.69,1.21,1.2c0.43,0.51,0.93,1.17,1.48,1.97c0.29,0.41,0.58,0.91,0.87,1.51
			c0.29,0.6,0.68,1.34,1.17,2.21c0.23,0.38,0.53,0.81,0.9,1.3c0.37,0.49,0.8,1.04,1.27,1.66c0.38,0.68,0.83,1.56,1.35,2.64
			c0.53,1.08,1.17,2.32,1.91,3.72c1.3,2.01,2.52,4.02,3.64,6.05c3.16,1.21,5.85,1.31,8.05,0.29c2.2-1.02,3.88-3.16,5.06-6.44
			c0.08-0.21,0.19-0.89,0.35-2.04c0.16-1.15,0.33-2.75,0.52-4.81c-0.06-0.65-0.18-1.45-0.38-2.4c-0.19-0.95-0.43-2.03-0.72-3.26
			c1.79-0.25,3.58-0.51,5.36-0.76c0.34,1.39,0.7,2.79,1.07,4.2c0.38,1.41,0.73,2.83,1.07,4.26c0.37,1.64,0.53,3.23,0.49,4.76
			c-0.05,1.53-0.3,2.95-0.77,4.27c-0.24,0.68-0.66,1.7-1.27,3.06c-0.61,1.36-1.04,2.4-1.29,3.12c-0.84,2.38-2.26,4.06-4.28,5.05
			c-2.02,0.99-4.63,1.24-7.81,0.76c-0.33-0.03-0.63-0.01-0.91,0.05c-0.28,0.06-0.64,0.23-1.07,0.5c0.23,0.71,0.51,1.56,0.84,2.52
			c0.33,0.97,0.69,2.13,1.08,3.47C1163.57,676.62,1161.76,676.9,1159.94,677.18z M1132.95,632.01c-0.12,0.12-0.24,0.25-0.36,0.37
			c0.82,3.06,1.77,5.5,2.86,7.32c1.08,1.82,2.35,3,3.8,3.57c0.23,0.09,0.55,0.37,0.98,0.86c0.43,0.48,0.96,1.17,1.59,2.04
			c0.74,1.07,1.58,2.2,2.51,3.38c1.51,1.51,2.75,2.7,3.73,3.56c0.98,0.86,1.71,1.39,2.2,1.58c0.18-0.08,0.35-0.16,0.53-0.23
			c0.11-0.4-0.01-0.98-0.36-1.74c-0.35-0.76-0.92-1.72-1.72-2.85c-0.46-0.57-0.95-1.32-1.49-2.26c-0.54-0.94-1.19-2.02-1.95-3.24
			c-0.45-0.96-1.87-2.75-4.23-5.38c-2.36-2.63-3.91-4.17-4.66-4.61c-0.62-0.29-1.21-0.66-1.76-1.09
			C1134.04,632.84,1133.49,632.42,1132.95,632.01z"/>
		<path class="st2" d="M1145.29,599.64c0.42-1.07,0.89-1.78,1.4-2.15c0.51-0.36,1.07-0.43,1.67-0.19c0.78,0.61,1.44,1.12,1.97,1.53
			c0.97,0.88,1.75,1.62,2.36,2.23c0.6,0.61,1.03,1.06,1.27,1.36c0.55,0.66,0.95,1.43,1.21,2.29c0.26,0.87,0.42,1.85,0.46,2.96
			c0.12,1.18,0.16,2.15,0.11,2.89c-0.05,0.74-0.14,1.23-0.27,1.48c-0.34,0.7-0.67,1.37-0.97,2.01c-0.3,0.64-0.58,1.28-0.82,1.92
			c-0.44,0.47-1.04,0.73-1.8,0.8c-0.76,0.07-1.68-0.11-2.76-0.54c-0.95-0.38-1.85-1.63-2.69-3.76c-0.84-2.13-1.07-3.81-0.7-5.04
			c-0.38-0.99-0.81-2.14-1.28-3.46c-0.05-0.51-0.01-1.14,0.11-1.88C1144.69,601.36,1144.93,600.54,1145.29,599.64z M1172.84,641.22
			c-0.07-0.17-0.13-0.34-0.2-0.51c-0.14-0.13-0.27-0.25-0.41-0.38c-0.77-1.61-1.59-4.24-2.42-7.88c-0.83-3.64-1.62-6.25-2.38-7.82
			c-0.35-0.63-0.53-1.26-0.55-1.9c-0.01-0.64,0.09-1.24,0.3-1.79c0.57-1.49,1.33-2.64,2.28-3.44c0.95-0.8,2.05-1.15,3.29-1.06
			c1.1,0.09,2.2,0.21,3.3,0.35c1.1,0.14,2.19,0.33,3.28,0.56c0.75-0.05,1.85-0.03,3.31,0.05c1.45,0.08,2.32,0.06,2.59-0.08
			c0.4-0.09,0.75-0.32,1.06-0.69c0.31-0.37,0.58-0.87,0.82-1.51c0.29-0.77,0.49-1.6,0.6-2.49c0.1-0.89,0.07-1.86-0.11-2.92
			c-0.17-0.8-0.33-1.64-0.48-2.51c-0.15-0.87-0.31-1.73-0.45-2.58c1.79-0.27,3.58-0.55,5.38-0.82c0.24,0.88,0.46,2.02,0.68,3.41
			c0.21,1.39,0.44,3.04,0.69,4.96c0.28,2.12,0.42,3.89,0.42,5.31c-0.01,1.42-0.13,2.45-0.37,3.08c-1.46,3.88-2.73,6.25-3.83,7.14
			c-1.1,0.89-3.45,1.43-7.06,1.63c-0.32,0.07-0.72,0.21-1.2,0.41c-0.48,0.2-1.04,0.42-1.68,0.66c-0.93,0.22-1.65,0.45-2.16,0.69
			c-0.51,0.24-0.82,0.49-0.91,0.74c-0.25,0.68-0.25,1.73,0.02,3.15c0.27,1.42,0.79,3.23,1.57,5.42c-0.5,0.05-1.09,0.12-1.79,0.22
			c-0.7,0.09-1.5,0.16-2.4,0.2c-0.23,0.01-0.44,0.05-0.65,0.11C1173.18,640.99,1173,641.09,1172.84,641.22z"/>
	</g>
</g>
</svg>
